<svg aria-hidden="true" style="position: absolute; width: 0; height: 0; overflow: hidden;" version="1.1" xmlns="http://www.w3.org/2000/svg" xmlns:xlink="http://www.w3.org/1999/xlink">
<defs>
<symbol id="icon-antenna" viewBox="0 0 32 32">
<path fill="#212121" style="fill: var(--color1, #212121)" d="M30.775 22.098l-8.443-8.503 0.937-4.617c0.242 0.091 0.498 0.142 0.759 0.146h0.005c0.006 0 0.014 0 0.022 0 1.192 0 2.158-0.966 2.158-2.158s-0.966-2.158-2.158-2.158c-1.192 0-2.158 0.966-2.158 2.158 0 0.259 0.046 0.507 0.129 0.737l-0.005-0.015-4.955 0.603-8.091-8.133c-0.097-0.098-0.231-0.159-0.379-0.16h-0c-0.137 0-0.274 0.055-0.37 0.155l-1.513 1.504c-0.21 0.21-0.21 0.549 0 0.754l0.814 0.823c-1.143 2.062-1.816 4.522-1.816 7.14 0 4.106 1.656 7.824 4.336 10.525l-0.001-0.001c0.046 0.046 0.091 0.073 0.146 0.101-0.032 0.183-0.050 0.366-0.050 0.549v6.185h-6.4c0 0 0 0 0 0-1.473 0-2.667 1.193-2.67 2.665v1.065c0 0.297 0.238 0.535 0.535 0.535h24.535c0.293 0 0.53-0.238 0.53-0.535v-1.065c-0.003-1.471-1.194-2.663-2.665-2.665h-6.4v-2.743c0.915 0.2 1.966 0.315 3.043 0.315 2.581 0 5.008-0.659 7.123-1.817l-0.077 0.039 0.818 0.823c0.096 0.101 0.233 0.16 0.375 0.16 0.137 0 0.274-0.059 0.375-0.155l1.509-1.509c0.21-0.206 0.21-0.544 0-0.75zM23.278 6.235c0.193-0.192 0.458-0.311 0.752-0.311 0.588 0 1.065 0.477 1.065 1.065s-0.476 1.064-1.063 1.065h-0c-0.001 0-0.001 0-0.002 0-0.588 0-1.065-0.477-1.065-1.065 0-0.297 0.122-0.566 0.318-0.759l0-0zM22.025 9.737l-0.599 2.944-1.175-1.179 1.774-1.765zM21.417 8.837l-1.92 1.906-1.486-1.49 3.406-0.416zM24.005 28.8c0.884 0 1.6 0.716 1.6 1.6v0 0.535h-23.465v-0.535c0-0.884 0.716-1.6 1.6-1.6v0h20.261zM16.539 26.665v1.070h-5.339v-1.070h5.335zM11.2 25.6v-4.055c0-1.294 1.198-2.345 2.665-2.345 1.472 0 2.67 1.051 2.67 2.345v4.055h-5.335zM17.6 23.904v-2.359c0-1.879-1.673-3.41-3.735-3.41-0.018-0-0.040-0-0.062-0-1.351 0-2.537 0.705-3.211 1.768l-0.009 0.016c-2.359-2.481-3.809-5.845-3.809-9.548 0-2.314 0.567-4.496 1.569-6.415l-0.036 0.077 18.606 18.711c-1.822 0.946-3.978 1.501-6.264 1.501-1.080 0-2.132-0.124-3.141-0.358l0.093 0.018zM28.891 23.218l-0.754-0.754-20.302-20.425 0.754-0.75 21.061 21.179-0.759 0.75z"></path>
<path fill="#2196f3" style="fill: var(--color2, #2196f3)" d="M13.874 20.265c-0.001 0-0.003 0-0.005 0-0.884 0-1.6 0.716-1.6 1.6 0 0.882 0.714 1.597 1.595 1.6h0.005c0.001 0 0.001 0 0.002 0 0.884 0 1.6-0.716 1.6-1.6s-0.715-1.599-1.598-1.6h-0zM14.249 22.245c-0.097 0.096-0.23 0.155-0.377 0.155-0.295 0-0.535-0.239-0.535-0.535s0.238-0.533 0.532-0.535h0c0.294 0.001 0.533 0.24 0.533 0.535 0 0.148-0.060 0.283-0.158 0.379l-0 0z"></path>
</symbol>
<symbol id="icon-astronaut" viewBox="0 0 32 32">
<path fill="#2196f3" style="fill: var(--color2, #2196f3)" d="M31.974 4.524c-0.064-0.191-0.227-0.332-0.427-0.362l-0.003-0-1.91-0.278-0.855-1.731c-0.179-0.365-0.777-0.365-0.956 0l-0.855 1.731-1.911 0.278c-0.26 0.039-0.457 0.26-0.457 0.528 0 0.15 0.062 0.285 0.161 0.382l1.383 1.348-0.326 1.903c-0.034 0.2 0.048 0.402 0.212 0.522 0.166 0.12 0.382 0.135 0.562 0.040l1.708-0.899 1.709 0.899c0.072 0.038 0.157 0.061 0.247 0.061 0.295 0 0.534-0.239 0.534-0.534 0-0.031-0.003-0.062-0.008-0.092l0 0.003-0.326-1.903 1.383-1.348c0.099-0.097 0.16-0.232 0.16-0.382 0-0.059-0.010-0.116-0.027-0.169l0.001 0.004zM29.511 5.851c-0.125 0.122-0.183 0.299-0.153 0.472l0.191 1.114-1.001-0.526c-0.072-0.039-0.158-0.062-0.248-0.062s-0.176 0.023-0.251 0.063l0.003-0.001-1.001 0.526 0.192-1.114c0.005-0.027 0.008-0.058 0.008-0.090 0-0.15-0.062-0.285-0.161-0.382l-0.811-0.789 1.119-0.163c0.174-0.025 0.324-0.134 0.402-0.292l0.5-1.013 0.501 1.013c0.078 0.158 0.228 0.267 0.402 0.292l1.119 0.162-0.809 0.79zM26.134 20.522h-1.067v1.067h1.067v-1.067zM26.134 22.656h-1.067v1.066h1.067v-1.066zM27.2 21.589h-1.067v1.067h1.067v-1.067z"></path>
<path fill="#2196f3" style="fill: var(--color2, #2196f3)" d="M25.067 21.589h-1.067v1.067h1.067v-1.067zM22.4 26.389h-1.067v1.067h1.067v-1.067zM22.4 28.523h-1.067v1.067h1.067v-1.067zM23.466 27.456h-1.067v1.067h1.067v-1.067zM21.334 27.456h-1.067v1.067h1.067v-1.067zM16 24.256h-1.067v1.067h1.067v-1.067zM16 26.389h-1.067v1.067h1.067v-1.067zM17.067 25.322h-1.067v1.067h1.067v-1.067z"></path>
<path fill="#2196f3" style="fill: var(--color2, #2196f3)" d="M14.934 25.322h-1.067v1.067h1.067v-1.067zM5.867 6.122h-1.067v1.066h1.067v-1.066zM5.867 8.256h-1.067v1.066h1.067v-1.066zM6.933 7.189h-1.067v1.067h1.066v-1.067zM4.8 7.189h-1.067v1.067h1.067v-1.067z"></path>
<path fill="#212121" style="fill: var(--color1, #212121)" d="M24.715 14.16c-0.28-0.376-0.698-0.636-1.179-0.703l-0.009-0.001c-0.076-0.012-0.164-0.018-0.254-0.018-0.411 0-0.789 0.139-1.090 0.373l0.004-0.003-1.253 0.96-1.898 1.417-1.358-0.541c2.421-1.086 4.113-3.508 4.113-6.32 0-3.823-3.122-6.934-6.961-6.934s-6.961 3.11-6.961 6.934c0 1.386 0.415 2.674 1.12 3.759l-2.768-0.024c-0.009 0-0.016 0.005-0.023 0.005-0.057 0.003-0.11 0.014-0.159 0.033l0.004-0.001c-0.013 0.005-0.026 0.007-0.038 0.013-0.006 0.003-0.013 0.003-0.019 0.006l-3.233 1.596c-0 0-0.001 0-0.001 0.001l-1.893 0.91c-0.024 0.011-0.045 0.023-0.064 0.036l0.001-0.001c-0.482 0.324-0.795 0.867-0.795 1.483 0 0.297 0.073 0.577 0.201 0.823l-0.005-0.010c0.22 0.424 0.592 0.742 1.043 0.885l0.013 0.003c0.161 0.053 0.345 0.083 0.537 0.083 0.308 0 0.598-0.078 0.851-0.216l-0.009 0.005 1.388-0.738 2.264-1.169 1.357-0.008-5.442 5.415c0 0.001-0.001 0.001-0.001 0.001l-1.339 1.333c-0.303 0.299-0.49 0.714-0.49 1.173 0 0.002 0 0.004 0 0.005v-0c0 0.444 0.174 0.863 0.49 1.178 0.301 0.3 0.717 0.485 1.176 0.485 0.001 0 0.002 0 0.004 0h-0c0.428 0 0.854-0.162 1.18-0.485l1.314-1.309 1.741-1.3 0.901 0.897-3.102 3.088c-0.303 0.299-0.491 0.715-0.491 1.174 0 0.001 0 0.003 0 0.004v-0c0 0.445 0.174 0.864 0.49 1.179 0.302 0.3 0.717 0.485 1.176 0.485 0.001 0 0.002 0 0.003 0h-0c0.427 0 0.855-0.162 1.18-0.485l4.488-4.472c0.007-0.006 0.016-0.009 0.022-0.016l5.166-5.658 3.471 0.494c0.025 0.004 0.050 0.006 0.075 0.006 0.065 0 0.127-0.016 0.187-0.038 0.018-0.006 0.033-0.015 0.050-0.023 0.019-0.010 0.039-0.015 0.058-0.027l3.213-2.133c0.012-0.008 0.018-0.021 0.029-0.030 0.013-0.010 0.029-0.014 0.041-0.026l1.271-1.191c0.348-0.326 0.564-0.787 0.564-1.3 0-0.4-0.132-0.769-0.355-1.066l0.003 0.005zM2.13 17.77c-0.098 0.054-0.215 0.086-0.34 0.086-0.078 0-0.153-0.013-0.224-0.036l0.005 0.001c-0.294-0.093-0.504-0.364-0.504-0.683 0-0.236 0.114-0.445 0.29-0.575l0.002-0.001 1.314-0.632 0.316 0.924 0.133 0.389-0.992 0.527zM5.627 15.942l-1.548 0.8-0.255-0.746-0.184-0.537 2.027-1.001-0.040 1.484zM20.727 9.322c0 0.918-0.219 1.785-0.599 2.56l-4.181-1.899c-0.044-0.575-0.342-1.072-0.782-1.384l-0.006-0.004 1.463-4.861c2.378 0.756 4.105 2.974 4.105 5.588zM8.938 9.322c0-3.235 2.644-5.867 5.894-5.867 0.253 0 0.5 0.022 0.745 0.053l-1.432 4.753c-0.019 0-0.037-0.006-0.057-0.006-0 0-0.001 0-0.001 0-1.032 0-1.869 0.835-1.872 1.867v0c0.003 1.031 0.84 1.867 1.872 1.867 0 0 0.001 0 0.001 0h-0c0.695 0 1.295-0.383 1.618-0.944l3.863 1.755c-1.075 1.446-2.795 2.389-4.737 2.389-3.25 0-5.894-2.632-5.894-5.867zM14.895 10.122c0 0.441-0.362 0.8-0.806 0.8-0 0-0.001 0-0.001 0-0.443 0-0.802-0.358-0.804-0.8v-0c0-0.441 0.361-0.8 0.806-0.8s0.806 0.359 0.806 0.8zM2.464 25.146c-0.11 0.109-0.261 0.176-0.428 0.176s-0.317-0.067-0.427-0.175l0 0c-0.109-0.108-0.176-0.257-0.176-0.422s0.067-0.314 0.176-0.422l0-0 0.962-0.959 0.852 0.848-0.959 0.955zM5.678 28.88c-0.11 0.109-0.261 0.176-0.428 0.176s-0.317-0.067-0.427-0.175l0 0c-0.109-0.108-0.176-0.257-0.176-0.422s0.067-0.314 0.176-0.422l0-0 0.963-0.959 0.852 0.848-0.96 0.955zM9.16 25.411l-0.001 0.001-1.765 1.76-0.852-0.848 1.765-1.757c0.040-0.040 0.065-0.088 0.090-0.136 0.007-0.014 0.020-0.026 0.026-0.040 0.016-0.041 0.019-0.085 0.026-0.128 0.003-0.025 0.014-0.048 0.014-0.073 0-0.035-0.013-0.070-0.020-0.105-0.006-0.032-0.006-0.064-0.019-0.096-0.025-0.053-0.055-0.098-0.092-0.138l0 0c-0.010-0.012-0.014-0.027-0.025-0.038h-0.001s0-0.001-0.001-0.002l-1.607-1.6c-0.017-0.017-0.039-0.024-0.058-0.038-0.025-0.021-0.054-0.040-0.084-0.057l-0.003-0.001c-0.027-0.013-0.058-0.024-0.090-0.031l-0.003-0.001c-0.030-0.009-0.065-0.017-0.101-0.020l-0.002-0c-0.007-0-0.015-0.001-0.023-0.001-0.026 0-0.051 0.002-0.075 0.005l0.003-0c-0.036 0.005-0.069 0.009-0.104 0.021-0.036 0.013-0.068 0.028-0.097 0.046l0.002-0.001c-0.020 0.011-0.042 0.015-0.061 0.029l-1.773 1.324-0.901-0.897 2.399-2.386 4.361 4.289-0.928 0.919zM15.979 18.394c-0.015-0.002-0.030 0.004-0.045 0.003-0.008-0-0.017-0.001-0.027-0.001-0.031 0-0.062 0.003-0.092 0.008l0.003-0c-0.070 0.011-0.132 0.035-0.187 0.070l0.002-0.001c-0.030 0.018-0.057 0.037-0.083 0.061-0.013 0.011-0.028 0.016-0.040 0.029l-4.698 5.146-4.328-4.256 2.833-2.818c0.096-0.097 0.156-0.23 0.156-0.377 0-0.295-0.239-0.534-0.534-0.534-0.001 0-0.001 0-0.002 0h0l-2.219 0.013 0.028-1.607 3.104 0.027c1.264 1.297 3.027 2.101 4.978 2.101 0.001 0 0.002 0 0.003 0h-0c0.438 0 0.864-0.046 1.28-0.122 0.040 0.032 0.080 0.064 0.129 0.085l2.41 0.96 0.152 0.759 0.178 0.885-3.003-0.427zM20.020 18.572l-0.313-1.558 1.446-1.080 0.946 1.257-2.080 1.381zM23.774 15.741l-0.838 0.785-0.931-1.237 0.831-0.637c0.155-0.119 0.351-0.168 0.543-0.143 0.193 0.027 0.364 0.128 0.48 0.284 0.088 0.117 0.141 0.265 0.141 0.426 0 0.206-0.087 0.391-0.226 0.521l-0 0z"></path>
<path fill="#212121" style="fill: var(--color1, #212121)" d="M13.602 18.544l-2.143-2.134c-0.096-0.096-0.229-0.156-0.376-0.156s-0.28 0.059-0.376 0.156v0l-2.143 2.134c-0.097 0.097-0.156 0.23-0.156 0.378s0.060 0.281 0.156 0.378l-0-0 2.143 2.134c0.096 0.096 0.229 0.156 0.376 0.156s0.28-0.059 0.376-0.156v0l2.143-2.134c0.097-0.097 0.157-0.23 0.157-0.378s-0.060-0.281-0.157-0.378l-0-0zM11.083 20.303l-1.387-1.381 1.386-1.381 1.387 1.381-1.387 1.381zM17.164 5.071l-0.258 1.036c0.071 0.018 1.738 0.452 1.738 2.149h1.067c0-2.017-1.666-2.965-2.547-3.184zM19.711 9.322h-1.067v1.066h1.067v-1.066z"></path>
</symbol>
<symbol id="icon-client1" viewBox="0 0 32 32">
<path fill="#afb1b8" style="fill: var(--color3, #afb1b8)" d="M5 0l4.872 4.468h13.59v12.465l4.872 4.468v-21.401h-23.333z"></path>
<path fill="#afb1b8" style="fill: var(--color3, #afb1b8)" d="M1 4.28v20.79h22.667v-8.264l-13.651-12.521-9.015-0.005zM19.349 22.029h-14.762v-13.982h1.043v13.035h13.719v0.947z"></path>
<path fill="#afb1b8" style="fill: var(--color3, #afb1b8)" d="M7.527 28.991l0.545-1.123h0.456l-0.794 1.497v0.872h-0.413v-0.872l-0.796-1.497h0.457l0.545 1.123zM9.868 29.686h-0.918l-0.192 0.552h-0.428l0.895-2.37h0.369l0.897 2.37h-0.43l-0.194-0.552zM9.065 29.354h0.687l-0.343-0.983-0.343 0.983zM11.491 29.598c0-0.11 0.030-0.21 0.090-0.301 0.060-0.092 0.177-0.201 0.353-0.327-0.092-0.116-0.157-0.215-0.194-0.296-0.036-0.081-0.054-0.16-0.054-0.236 0-0.186 0.056-0.332 0.169-0.439 0.113-0.109 0.265-0.163 0.456-0.163 0.173 0 0.314 0.051 0.423 0.153 0.111 0.101 0.166 0.226 0.166 0.376 0 0.099-0.025 0.19-0.075 0.273-0.050 0.082-0.132 0.165-0.246 0.247l-0.161 0.117 0.457 0.54c0.066-0.13 0.099-0.275 0.099-0.435h0.343c0 0.292-0.068 0.531-0.205 0.718l0.348 0.412h-0.459l-0.133-0.158c-0.169 0.127-0.371 0.19-0.605 0.19s-0.422-0.062-0.563-0.186c-0.14-0.125-0.21-0.287-0.21-0.487zM12.275 29.954c0.133 0 0.258-0.044 0.374-0.133l-0.518-0.61-0.050 0.036c-0.13 0.099-0.195 0.212-0.195 0.339 0 0.11 0.035 0.199 0.106 0.267s0.165 0.103 0.283 0.103zM12.057 28.428c0 0.091 0.056 0.206 0.168 0.343l0.181-0.124 0.050-0.041c0.067-0.060 0.101-0.136 0.101-0.23 0-0.062-0.023-0.114-0.070-0.158-0.047-0.044-0.106-0.067-0.177-0.067-0.077 0-0.138 0.026-0.184 0.078s-0.068 0.118-0.068 0.197zM16.362 29.466c-0.024 0.253-0.117 0.45-0.28 0.592-0.163 0.141-0.379 0.212-0.649 0.212-0.189 0-0.355-0.045-0.5-0.133-0.143-0.090-0.254-0.218-0.332-0.383s-0.119-0.356-0.122-0.575v-0.221c0-0.224 0.040-0.42 0.119-0.591s0.193-0.302 0.34-0.394c0.149-0.092 0.32-0.138 0.514-0.138 0.262 0 0.472 0.071 0.632 0.213s0.252 0.343 0.278 0.602h-0.41c-0.020-0.17-0.069-0.293-0.15-0.368-0.079-0.076-0.196-0.114-0.35-0.114-0.179 0-0.317 0.066-0.413 0.197-0.095 0.13-0.144 0.322-0.146 0.575v0.21c0 0.256 0.046 0.451 0.137 0.586s0.227 0.202 0.404 0.202c0.162 0 0.283-0.036 0.365-0.109s0.133-0.194 0.155-0.363h0.41zM18.623 29.115c0 0.232-0.040 0.436-0.12 0.612-0.080 0.175-0.195 0.309-0.345 0.404-0.149 0.093-0.32 0.14-0.514 0.14-0.192 0-0.364-0.047-0.514-0.14-0.15-0.094-0.266-0.228-0.348-0.402-0.081-0.174-0.123-0.374-0.124-0.601v-0.133c0-0.231 0.041-0.435 0.122-0.612 0.082-0.177 0.198-0.312 0.347-0.405 0.15-0.094 0.321-0.142 0.514-0.142s0.364 0.047 0.513 0.14c0.15 0.092 0.265 0.226 0.347 0.4 0.081 0.174 0.123 0.376 0.124 0.607v0.132zM18.211 28.991c0-0.263-0.050-0.464-0.15-0.604-0.099-0.14-0.239-0.21-0.422-0.21-0.178 0-0.317 0.070-0.418 0.21-0.1 0.139-0.151 0.336-0.153 0.591v0.137c0 0.26 0.050 0.462 0.151 0.604 0.102 0.142 0.243 0.213 0.423 0.213 0.182 0 0.322-0.069 0.42-0.208 0.099-0.139 0.148-0.342 0.148-0.609v-0.124z"></path>
</symbol>
<symbol id="icon-client2" viewBox="0 0 32 32">
<path fill="#afb1b8" style="fill: var(--color3, #afb1b8)" d="M14.14 1.806h0.084c0.156 0 0.324 0.016 0.49 0.030 0.734 0.052 1.463 0.162 2.179 0.329v-1.762c-0.738-0.185-1.491-0.305-2.25-0.358-0.288-0.022-0.595-0.036-0.909-0.044h-0.263c-1.523 0.006-3.039 0.201-4.515 0.582-1.68 0.419-3.293 1.075-4.79 1.948v17.475c1.442-0.783 2.976-1.381 4.566-1.779 1.256-0.32 2.539-0.517 3.833-0.588h0.051c0.216-0.011 0.433-0.017 0.655-0.019v-1.79c-1.681 0.022-3.353 0.244-4.982 0.662-0.602 0.157-1.185 0.325-1.731 0.513l-0.623 0.211v-13.625l0.266-0.128c2.032-0.963 4.229-1.524 6.471-1.651 0.019-0.001 0.037-0.001 0.056 0 0.248-0.013 0.497-0.019 0.741-0.019h0.28c0.129 0.003 0.258 0.006 0.388 0.014z"></path>
<path fill="#afb1b8" style="fill: var(--color3, #afb1b8)" d="M18.53 3.651c-0.409 0-0.814-0.014-1.205-0.044-0.467-0.034-0.947-0.091-1.401-0.167-0.277-0.047-0.55-0.103-0.814-0.164v17.275c1.12 0.277 2.271 0.413 3.425 0.404 1.523-0.006 3.039-0.201 4.515-0.581 1.68-0.42 3.294-1.075 4.792-1.948v-17.163c-1.442 0.783-2.975 1.381-4.564 1.781-1.551 0.398-3.145 0.603-4.747 0.609zM25.437 3.95l0.623-0.21v13.63l-0.266 0.128c-1.021 0.486-2.087 0.869-3.184 1.144-1.331 0.344-2.7 0.522-4.074 0.527-0.411 0-0.819-0.017-1.214-0.052l-0.427-0.038v-14.017l0.497 0.033c0.361 0.023 0.735 0.034 1.141 0.034 1.745-0.006 3.483-0.229 5.173-0.663 0.581-0.153 1.158-0.325 1.731-0.518z"></path>
<path fill="#afb1b8" style="fill: var(--color3, #afb1b8)" d="M5.377 25.977c-0.090-0.093-0.197-0.166-0.317-0.214s-0.247-0.071-0.376-0.066c-0.137-0.002-0.273 0.024-0.4 0.075-0.117 0.046-0.222 0.116-0.311 0.205s-0.156 0.196-0.201 0.313c-0.049 0.123-0.073 0.254-0.072 0.387v2.335c-0.006 0.165 0.026 0.328 0.092 0.479 0.055 0.12 0.135 0.226 0.234 0.313 0.093 0.079 0.203 0.135 0.321 0.166 0.114 0.032 0.231 0.048 0.349 0.049 0.13 0.001 0.259-0.027 0.377-0.081 0.117-0.051 0.222-0.124 0.311-0.216 0.087-0.091 0.156-0.197 0.204-0.313 0.050-0.118 0.075-0.244 0.075-0.372v-0.261h-0.61v0.208c0.002 0.071-0.010 0.142-0.036 0.208-0.020 0.050-0.050 0.095-0.089 0.131-0.038 0.031-0.081 0.053-0.128 0.067-0.041 0.014-0.084 0.021-0.128 0.022-0.054 0.006-0.11-0.002-0.16-0.024s-0.094-0.057-0.126-0.101c-0.058-0.094-0.086-0.203-0.081-0.313v-2.177c-0.004-0.121 0.022-0.241 0.075-0.349 0.032-0.049 0.077-0.089 0.129-0.113s0.112-0.034 0.17-0.027c0.053-0.002 0.105 0.009 0.152 0.032s0.089 0.057 0.12 0.099c0.068 0.090 0.104 0.2 0.101 0.313v0.202h0.604v-0.238c0.001-0.14-0.024-0.278-0.075-0.408-0.045-0.122-0.114-0.234-0.204-0.329z"></path>
<path fill="#afb1b8" style="fill: var(--color3, #afb1b8)" d="M9.002 25.95c-0.195-0.164-0.44-0.255-0.694-0.257-0.124 0.001-0.248 0.023-0.364 0.066-0.119 0.042-0.228 0.107-0.322 0.191-0.101 0.091-0.182 0.202-0.237 0.327-0.061 0.143-0.092 0.297-0.089 0.452v2.239c-0.004 0.158 0.026 0.314 0.089 0.459 0.055 0.12 0.136 0.227 0.237 0.313 0.093 0.087 0.203 0.154 0.322 0.197 0.117 0.043 0.24 0.065 0.364 0.066s0.248-0.023 0.364-0.066c0.121-0.044 0.233-0.111 0.33-0.197 0.097-0.087 0.176-0.194 0.23-0.313 0.063-0.144 0.093-0.301 0.089-0.459v-2.239c0.003-0.155-0.027-0.31-0.089-0.452-0.054-0.123-0.133-0.235-0.23-0.327zM8.718 28.969c0.005 0.060-0.003 0.12-0.024 0.176s-0.054 0.107-0.097 0.148c-0.081 0.068-0.182 0.105-0.287 0.105s-0.207-0.037-0.287-0.105c-0.043-0.041-0.076-0.092-0.097-0.148s-0.029-0.116-0.024-0.176v-2.239c-0.005-0.060 0.003-0.12 0.024-0.176s0.054-0.107 0.097-0.148c0.081-0.068 0.182-0.105 0.287-0.105s0.207 0.037 0.287 0.105c0.043 0.041 0.076 0.092 0.097 0.148s0.029 0.116 0.024 0.176v2.239z"></path>
<path fill="#afb1b8" style="fill: var(--color3, #afb1b8)" d="M13.764 29.969v-4.239h-0.587l-0.771 2.244h-0.011l-0.777-2.244h-0.581v4.239h0.606v-2.579h0.011l0.593 1.823h0.302l0.598-1.823h0.011v2.579h0.606z"></path>
<path fill="#afb1b8" style="fill: var(--color3, #afb1b8)" d="M17.205 26.027c-0.093-0.105-0.211-0.184-0.342-0.232-0.142-0.046-0.29-0.068-0.439-0.066h-0.9v4.239h0.604v-1.656h0.311c0.189 0.009 0.376-0.031 0.545-0.116 0.137-0.076 0.252-0.188 0.332-0.324 0.070-0.113 0.117-0.238 0.139-0.369 0.024-0.16 0.035-0.321 0.033-0.482 0.006-0.204-0.014-0.407-0.059-0.606-0.040-0.147-0.117-0.281-0.223-0.39zM16.894 27.32c-0.003 0.077-0.022 0.152-0.056 0.221-0.035 0.065-0.089 0.117-0.156 0.149-0.089 0.040-0.187 0.058-0.285 0.053h-0.276v-1.441h0.311c0.094-0.005 0.187 0.014 0.272 0.053 0.062 0.036 0.112 0.091 0.142 0.156 0.033 0.075 0.051 0.155 0.053 0.236 0 0.089 0 0.183 0 0.282s0.006 0.2 0 0.291h-0.006z"></path>
<path fill="#afb1b8" style="fill: var(--color3, #afb1b8)" d="M20.066 25.73h-0.495l-0.934 4.239h0.604l0.177-0.911h0.823l0.177 0.911h0.604l-0.957-4.239zM19.509 28.481l0.297-1.537h0.011l0.296 1.537h-0.604z"></path>
<path fill="#afb1b8" style="fill: var(--color3, #afb1b8)" d="M23.969 28.283h-0.011l-0.912-2.554h-0.581v4.239h0.604v-2.549h0.012l0.923 2.549h0.568v-4.239h-0.604v2.554z"></path>
<path fill="#afb1b8" style="fill: var(--color3, #afb1b8)" d="M27.66 25.73l-0.486 1.685h-0.012l-0.486-1.685h-0.64l0.83 2.447v1.792h0.604v-1.792l0.83-2.447h-0.64z"></path>
<path fill="#afb1b8" style="fill: var(--color3, #afb1b8)" d="M3.692 31.166h0.291v0.817h0.198v-0.817h0.29v-0.167h-0.778v0.167z"></path>
<path fill="#afb1b8" style="fill: var(--color3, #afb1b8)" d="M6.14 30.999l-0.381 0.984h0.21l0.081-0.224h0.392l0.084 0.224h0.215l-0.391-0.984h-0.21zM6.108 31.593l0.134-0.365 0.134 0.365h-0.268z"></path>
<path fill="#afb1b8" style="fill: var(--color3, #afb1b8)" d="M8.559 31.62h0.227v0.127c-0.066 0.053-0.149 0.082-0.233 0.083-0.040 0.002-0.079-0.005-0.116-0.021s-0.068-0.041-0.093-0.072c-0.052-0.075-0.078-0.165-0.073-0.257 0-0.219 0.095-0.329 0.283-0.329 0.050-0.005 0.099 0.008 0.14 0.037s0.070 0.071 0.082 0.12l0.195-0.038c-0.042-0.192-0.181-0.289-0.417-0.289-0.127-0.003-0.25 0.042-0.344 0.127-0.050 0.049-0.088 0.108-0.112 0.174s-0.034 0.135-0.029 0.205c-0.006 0.135 0.039 0.267 0.126 0.369 0.048 0.050 0.107 0.088 0.171 0.113s0.134 0.035 0.203 0.031c0.154 0.004 0.304-0.052 0.417-0.157v-0.388h-0.427v0.166z"></path>
<path fill="#afb1b8" style="fill: var(--color3, #afb1b8)" d="M11.029 30.999h-0.199v0.984h0.69v-0.167h-0.49v-0.817z"></path>
<path fill="#afb1b8" style="fill: var(--color3, #afb1b8)" d="M13.118 30.999h-0.199v0.984h0.199v-0.984z"></path>
<path fill="#afb1b8" style="fill: var(--color3, #afb1b8)" d="M15.161 31.656l-0.403-0.657h-0.193v0.984h0.185v-0.643l0.395 0.643h0.198v-0.984h-0.182v0.657z"></path>
<path fill="#afb1b8" style="fill: var(--color3, #afb1b8)" d="M17.007 31.549h0.49v-0.167h-0.49v-0.216h0.528v-0.167h-0.727v0.984h0.747v-0.167h-0.548v-0.266z"></path>
<path fill="#afb1b8" style="fill: var(--color3, #afb1b8)" d="M21.484 31.387h-0.388v-0.388h-0.198v0.984h0.198v-0.43h0.388v0.43h0.198v-0.984h-0.198v0.388z"></path>
<path fill="#afb1b8" style="fill: var(--color3, #afb1b8)" d="M23.342 31.549h0.492v-0.167h-0.492v-0.216h0.529v-0.167h-0.727v0.984h0.746v-0.167h-0.548v-0.266z"></path>
<path fill="#afb1b8" style="fill: var(--color3, #afb1b8)" d="M25.86 31.549c0.171-0.027 0.258-0.117 0.258-0.274 0.005-0.042-0.001-0.084-0.018-0.123s-0.044-0.072-0.078-0.096c-0.089-0.045-0.189-0.065-0.288-0.058h-0.417v0.984h0.198v-0.412h0.039c0.042-0.003 0.084 0.005 0.123 0.022 0.029 0.018 0.053 0.043 0.070 0.072l0.215 0.313h0.237l-0.12-0.192c-0.053-0.095-0.128-0.176-0.218-0.236zM25.661 31.413h-0.146v-0.247h0.156c0.068-0.005 0.136 0.002 0.201 0.023 0.014 0.013 0.026 0.029 0.033 0.046s0.011 0.037 0.010 0.056c-0.001 0.019-0.006 0.038-0.015 0.055s-0.022 0.032-0.037 0.043c-0.065 0.020-0.133 0.028-0.201 0.023z"></path>
<path fill="#afb1b8" style="fill: var(--color3, #afb1b8)" d="M27.76 31.549h0.49v-0.167h-0.49v-0.216h0.529v-0.167h-0.729v0.984h0.747v-0.167h-0.548v-0.266z"></path>
</symbol>
<symbol id="icon-client3" viewBox="0 0 32 32">
<path fill="#afb1b8" style="fill: var(--color3, #afb1b8)" d="M5.216 30.852c0.011 0 0.023 0.003 0.033 0.007s0.020 0.011 0.028 0.018l0.157 0.159c-0.122 0.129-0.272 0.232-0.441 0.302-0.198 0.077-0.411 0.114-0.625 0.109-0.201 0.004-0.402-0.031-0.588-0.101-0.168-0.065-0.319-0.162-0.443-0.286-0.126-0.128-0.224-0.278-0.286-0.441-0.069-0.182-0.102-0.374-0.1-0.566-0.003-0.194 0.034-0.387 0.108-0.568 0.068-0.164 0.172-0.314 0.304-0.441 0.134-0.125 0.294-0.222 0.47-0.288 0.193-0.069 0.399-0.103 0.606-0.101 0.192-0.004 0.384 0.027 0.562 0.092 0.155 0.062 0.298 0.148 0.421 0.255l-0.131 0.17c-0.009 0.012-0.020 0.022-0.033 0.031-0.016 0.010-0.034 0.014-0.053 0.013-0.020-0.001-0.040-0.008-0.057-0.018l-0.071-0.045-0.098-0.058c-0.042-0.021-0.086-0.040-0.131-0.056-0.058-0.019-0.118-0.034-0.178-0.045-0.077-0.013-0.155-0.019-0.233-0.018-0.149-0.002-0.297 0.024-0.435 0.076-0.129 0.048-0.245 0.121-0.341 0.213-0.098 0.099-0.173 0.214-0.221 0.34-0.055 0.144-0.082 0.296-0.080 0.449-0.002 0.155 0.025 0.309 0.080 0.456 0.048 0.125 0.122 0.24 0.218 0.338 0.090 0.092 0.201 0.164 0.325 0.21 0.128 0.049 0.265 0.074 0.404 0.072 0.080 0.001 0.16-0.004 0.239-0.014 0.129-0.015 0.253-0.056 0.363-0.121 0.055-0.033 0.107-0.071 0.155-0.112 0.020-0.018 0.047-0.028 0.074-0.029z"></path>
<path fill="#afb1b8" style="fill: var(--color3, #afb1b8)" d="M9.743 30.052c0.002 0.192-0.033 0.383-0.106 0.563-0.064 0.163-0.165 0.312-0.295 0.437s-0.289 0.222-0.463 0.287c-0.384 0.135-0.808 0.135-1.191 0-0.173-0.065-0.33-0.163-0.461-0.288-0.131-0.127-0.232-0.277-0.298-0.441-0.141-0.364-0.141-0.763 0-1.127 0.067-0.164 0.168-0.315 0.298-0.443 0.131-0.12 0.288-0.215 0.461-0.277 0.383-0.138 0.808-0.138 1.191 0 0.174 0.065 0.332 0.163 0.462 0.288 0.129 0.126 0.23 0.274 0.296 0.436 0.073 0.181 0.108 0.373 0.106 0.566zM9.331 30.052c0.003-0.154-0.022-0.306-0.075-0.452-0.044-0.125-0.115-0.24-0.21-0.338-0.092-0.093-0.205-0.166-0.331-0.213-0.279-0.099-0.587-0.099-0.866 0-0.126 0.048-0.239 0.121-0.331 0.213-0.096 0.098-0.168 0.213-0.212 0.338-0.1 0.294-0.1 0.61 0 0.905 0.044 0.125 0.116 0.24 0.212 0.338 0.092 0.092 0.205 0.165 0.331 0.212 0.279 0.096 0.587 0.096 0.866 0 0.126-0.047 0.239-0.119 0.331-0.212 0.094-0.099 0.165-0.214 0.21-0.338 0.053-0.146 0.078-0.299 0.075-0.452z"></path>
<path fill="#afb1b8" style="fill: var(--color3, #afb1b8)" d="M12.831 30.526l0.041 0.101c0.016-0.036 0.029-0.069 0.045-0.101 0.015-0.034 0.032-0.067 0.051-0.099l1.001-1.68c0.020-0.029 0.037-0.047 0.057-0.052 0.027-0.008 0.054-0.011 0.082-0.009h0.296v2.733h-0.351v-2.010c0-0.025 0-0.054 0-0.085-0.002-0.031-0.002-0.063 0-0.094l-1.007 1.704c-0.013 0.026-0.033 0.047-0.059 0.062s-0.056 0.023-0.086 0.023h-0.057c-0.031 0-0.060-0.007-0.086-0.023s-0.046-0.037-0.059-0.062l-1.037-1.715c0 0.033 0 0.065 0 0.098s0 0.061 0 0.087v2.010h-0.339v-2.728h0.296c0.028-0.002 0.056 0.002 0.082 0.009 0.024 0.011 0.044 0.030 0.055 0.052l1.023 1.682c0.020 0.031 0.037 0.064 0.051 0.098z"></path>
<path fill="#afb1b8" style="fill: var(--color3, #afb1b8)" d="M16.6 30.39v1.024h-0.392v-2.729h0.874c0.165-0.003 0.33 0.017 0.488 0.060 0.127 0.033 0.244 0.091 0.345 0.17 0.087 0.074 0.154 0.166 0.196 0.268 0.046 0.111 0.069 0.23 0.067 0.349 0.002 0.12-0.023 0.238-0.073 0.349-0.047 0.105-0.119 0.198-0.212 0.273-0.101 0.082-0.219 0.144-0.347 0.181-0.153 0.045-0.312 0.066-0.472 0.063l-0.474-0.007zM16.6 30.097h0.474c0.103 0.001 0.206-0.013 0.304-0.042 0.081-0.025 0.156-0.065 0.22-0.118 0.059-0.050 0.104-0.112 0.133-0.181 0.032-0.073 0.048-0.151 0.047-0.23 0.005-0.076-0.009-0.152-0.039-0.222s-0.077-0.134-0.137-0.186c-0.15-0.108-0.338-0.16-0.527-0.146h-0.474v1.125z"></path>
<path fill="#afb1b8" style="fill: var(--color3, #afb1b8)" d="M21.867 31.418h-0.31c-0.031 0.001-0.062-0.008-0.086-0.025-0.022-0.017-0.040-0.039-0.051-0.063l-0.267-0.66h-1.338l-0.276 0.66c-0.010 0.024-0.027 0.045-0.049 0.062-0.025 0.018-0.056 0.028-0.088 0.027h-0.31l1.176-2.733h0.408l1.192 2.733zM19.927 30.403h1.105l-0.466-1.113c-0.036-0.084-0.065-0.169-0.088-0.257l-0.045 0.143c-0.014 0.043-0.029 0.083-0.043 0.116l-0.462 1.111z"></path>
<path fill="#afb1b8" style="fill: var(--color3, #afb1b8)" d="M23.561 28.697c0.023 0.012 0.044 0.029 0.059 0.049l1.715 2.060c0-0.033 0-0.065 0-0.096s0-0.061 0-0.090v-1.936h0.351v2.733h-0.196c-0.028 0.001-0.055-0.005-0.080-0.016-0.024-0.013-0.046-0.030-0.063-0.051l-1.713-2.059c0.002 0.031 0.002 0.063 0 0.094 0 0.031 0 0.058 0 0.083v1.948h-0.351v-2.733h0.208c0.024-0.001 0.048 0.004 0.070 0.013z"></path>
<path fill="#afb1b8" style="fill: var(--color3, #afb1b8)" d="M28.574 30.33v1.085h-0.392v-1.085l-1.084-1.646h0.351c0.030-0.002 0.060 0.007 0.084 0.024 0.021 0.018 0.039 0.038 0.053 0.061l0.678 1.062c0.027 0.045 0.051 0.087 0.071 0.127s0.035 0.078 0.049 0.116l0.051-0.118c0.019-0.043 0.041-0.085 0.067-0.125l0.668-1.069c0.014-0.021 0.031-0.041 0.051-0.058 0.023-0.019 0.053-0.029 0.084-0.027h0.355l-1.086 1.654z"></path>
<path fill="#afb1b8" style="fill: var(--color3, #afb1b8)" d="M12.637 24.097c0.171 0.020 0.343 0.036 0.517 0.051 2.644-1.092 4.881-2.879 6.431-5.138s2.344-4.889 2.284-7.563l-2.914-2.69c0.593 2.846 0.315 5.788-0.8 8.498s-3.026 5.078-5.518 6.842z"></path>
<path fill="#afb1b8" style="fill: var(--color3, #afb1b8)" d="M11.597 23.972l0.078 0.014c2.662-1.758 4.692-4.212 5.827-7.046s1.322-5.917 0.538-8.85l-4.151-3.831c1.679 3.149 2.355 6.674 1.949 10.164s-1.877 6.802-4.242 9.55z"></path>
<path fill="#afb1b8" style="fill: var(--color3, #afb1b8)" d="M25.673 14.605c-0.705 2.937-2.418 5.587-4.884 7.554-0.72 0.578-1.497 1.093-2.32 1.538 2.008-0.545 3.853-1.508 5.394-2.815s2.736-2.924 3.493-4.724l-1.683-1.552z"></path>
<path fill="#afb1b8" style="fill: var(--color3, #afb1b8)" d="M25.013 14.173l-2.397-2.212c-0.046 2.522-0.823 4.987-2.25 7.139s-3.452 3.911-5.865 5.095h0.012c0.538-0 1.075-0.030 1.609-0.089 2.255-0.85 4.247-2.201 5.799-3.934s2.614-3.794 3.093-5.998z"></path>
<path fill="#afb1b8" style="fill: var(--color3, #afb1b8)" d="M11.943 2.643l-2.859-2.643c-2.556 0.912-4.754 2.515-6.307 4.599s-2.388 4.552-2.396 7.082v0c0.010 2.795 1.029 5.507 2.896 7.707s4.476 3.762 7.414 4.44c2.622-2.949 4.158-6.593 4.383-10.403s-0.871-7.586-3.131-10.781z"></path>
<path fill="#afb1b8" style="fill: var(--color3, #afb1b8)" d="M31.619 13.766c-0.010-3.316-1.442-6.494-3.982-8.838s-5.983-3.666-9.575-3.676c-1.66-0.002-3.306 0.281-4.854 0.834l17.506 16.159c0.599-1.428 0.906-2.947 0.905-4.479z"></path>
</symbol>
<symbol id="icon-client4" viewBox="0 0 32 32">
<path fill="#2196f3" style="fill: var(--color2, #2196f3)" d="M4.982 12.851h-0.001c-0.909 0-1.646 0.676-1.646 1.509v0.001c0 0.834 0.737 1.509 1.646 1.509h0.001c0.909 0 1.646-0.676 1.646-1.509v-0.001c0-0.834-0.737-1.509-1.646-1.509z"></path>
<path fill="#2196f3" style="fill: var(--color2, #2196f3)" d="M17.128 12.369c-0.003-1.158-0.505-2.267-1.398-3.086s-2.102-1.28-3.364-1.282v0c-1.263 0.002-2.473 0.463-3.366 1.282s-1.396 1.929-1.398 3.087v6.384c0 0 9.525-0.973 9.526-6.383v-0.001z"></path>
<path fill="#2196f3" style="fill: var(--color2, #2196f3)" d="M0 20.848c0.002 0.806 0.352 1.578 0.973 2.147s1.463 0.891 2.341 0.893c0.878-0.002 1.72-0.323 2.34-0.893s0.971-1.341 0.973-2.147v-4.442c0 0-6.628 0.678-6.628 4.441zM3.314 21.644c-0.172 0-0.339-0.047-0.482-0.134s-0.254-0.212-0.32-0.357c-0.066-0.145-0.083-0.305-0.049-0.46s0.116-0.296 0.237-0.408c0.121-0.111 0.276-0.187 0.444-0.218s0.343-0.015 0.501 0.045c0.159 0.060 0.294 0.162 0.389 0.293s0.146 0.285 0.146 0.442c0 0.105-0.022 0.209-0.065 0.305s-0.107 0.185-0.188 0.259-0.176 0.133-0.282 0.173c-0.106 0.040-0.219 0.061-0.333 0.061v-0.003z"></path>
<path fill="#2196f3" style="fill: var(--color2, #2196f3)" d="M10.045 21.202h-0.659v0.68h-0.343v-1.665h1.084v0.278h-0.741v0.43h0.659v0.277zM11.694 21.088c0 0.164-0.029 0.308-0.087 0.431s-0.141 0.219-0.249 0.286c-0.107 0.067-0.231 0.101-0.37 0.101-0.138 0-0.261-0.033-0.369-0.099s-0.192-0.161-0.252-0.284c-0.059-0.123-0.090-0.265-0.090-0.425v-0.082c0-0.164 0.029-0.308 0.088-0.432s0.143-0.221 0.25-0.287c0.108-0.067 0.232-0.101 0.37-0.101s0.262 0.034 0.369 0.101c0.108 0.066 0.192 0.162 0.25 0.287s0.089 0.268 0.089 0.431v0.074zM11.346 21.012c0-0.175-0.031-0.307-0.094-0.398s-0.152-0.136-0.268-0.136c-0.115 0-0.204 0.045-0.266 0.135s-0.094 0.22-0.095 0.393v0.081c0 0.17 0.031 0.302 0.094 0.396s0.152 0.141 0.27 0.141c0.115 0 0.204-0.045 0.265-0.135s0.093-0.223 0.094-0.396v-0.081zM12.806 21.446c0-0.065-0.023-0.114-0.069-0.149s-0.128-0.072-0.247-0.11c-0.119-0.039-0.213-0.077-0.282-0.114-0.189-0.102-0.284-0.24-0.284-0.413 0-0.090 0.025-0.17 0.075-0.24s0.124-0.126 0.218-0.166c0.095-0.040 0.202-0.059 0.32-0.059s0.225 0.022 0.318 0.065c0.093 0.043 0.165 0.103 0.216 0.182s0.078 0.168 0.078 0.268h-0.343c0-0.076-0.024-0.135-0.072-0.177s-0.115-0.064-0.202-0.064c-0.084 0-0.149 0.018-0.196 0.054s-0.070 0.082-0.070 0.139c0 0.054 0.027 0.099 0.081 0.136s0.135 0.071 0.241 0.103c0.195 0.059 0.337 0.131 0.426 0.218s0.134 0.195 0.134 0.325c0 0.144-0.054 0.257-0.163 0.34s-0.256 0.122-0.44 0.122c-0.128 0-0.245-0.023-0.35-0.070s-0.186-0.112-0.241-0.193c-0.055-0.082-0.082-0.176-0.082-0.284h0.344c0 0.184 0.11 0.276 0.329 0.276 0.082 0 0.145-0.016 0.191-0.049s0.069-0.080 0.069-0.139zM14.637 20.496h-0.51v1.387h-0.343v-1.387h-0.503v-0.278h1.356v0.278zM15.835 21.161h-0.659v0.446h0.773v0.276h-1.116v-1.665h1.114v0.278h-0.771v0.397h0.659v0.269zM16.766 21.273h-0.273v0.609h-0.343v-1.665h0.619c0.197 0 0.348 0.044 0.455 0.131s0.16 0.212 0.16 0.372c0 0.114-0.025 0.208-0.074 0.285s-0.123 0.136-0.223 0.181l0.36 0.68v0.016h-0.368l-0.312-0.609zM16.493 20.995h0.277c0.086 0 0.153-0.022 0.2-0.065s0.071-0.105 0.071-0.182c0-0.079-0.022-0.14-0.067-0.185s-0.112-0.067-0.205-0.067h-0.276v0.5zM18.572 21.296v0.587h-0.343v-1.665h0.649c0.125 0 0.235 0.023 0.329 0.069s0.168 0.111 0.22 0.195c0.051 0.084 0.077 0.179 0.077 0.287 0 0.163-0.056 0.292-0.168 0.386s-0.266 0.141-0.463 0.141h-0.301zM18.572 21.018h0.306c0.091 0 0.16-0.021 0.207-0.064s0.072-0.104 0.072-0.183c0-0.082-0.024-0.148-0.072-0.198s-0.114-0.076-0.199-0.078h-0.314v0.523zM20.742 21.161h-0.659v0.446h0.773v0.276h-1.116v-1.665h1.114v0.278h-0.771v0.397h0.659v0.269zM22.333 20.496h-0.51v1.387h-0.343v-1.387h-0.503v-0.278h1.356v0.278zM23.531 21.161h-0.659v0.446h0.773v0.276h-1.116v-1.665h1.114v0.278h-0.771v0.397h0.659v0.269zM24.463 21.273h-0.273v0.609h-0.343v-1.665h0.619c0.197 0 0.348 0.044 0.455 0.131s0.16 0.212 0.16 0.372c0 0.114-0.025 0.208-0.074 0.285s-0.123 0.136-0.223 0.181l0.36 0.68v0.016h-0.368l-0.312-0.609zM24.19 20.995h0.277c0.086 0 0.153-0.022 0.2-0.065s0.071-0.105 0.071-0.182c0-0.079-0.022-0.14-0.067-0.185s-0.112-0.067-0.205-0.067h-0.276v0.5zM26.206 21.446c0-0.065-0.023-0.114-0.069-0.149s-0.128-0.072-0.247-0.11c-0.119-0.039-0.213-0.077-0.282-0.114-0.189-0.102-0.284-0.24-0.284-0.413 0-0.090 0.025-0.17 0.075-0.24s0.124-0.126 0.218-0.166c0.095-0.040 0.202-0.059 0.32-0.059s0.225 0.022 0.318 0.065c0.093 0.043 0.165 0.103 0.216 0.182s0.078 0.168 0.078 0.268h-0.343c0-0.076-0.024-0.135-0.072-0.177s-0.115-0.064-0.202-0.064c-0.084 0-0.149 0.018-0.195 0.054s-0.070 0.082-0.070 0.139c0 0.054 0.027 0.099 0.081 0.136s0.135 0.071 0.241 0.103c0.195 0.059 0.337 0.131 0.426 0.218s0.134 0.195 0.134 0.325c0 0.144-0.054 0.257-0.163 0.34s-0.256 0.122-0.44 0.122c-0.128 0-0.245-0.023-0.35-0.070s-0.186-0.112-0.241-0.193c-0.055-0.082-0.082-0.176-0.082-0.284h0.344c0 0.184 0.11 0.276 0.329 0.276 0.082 0 0.145-0.016 0.191-0.049s0.069-0.080 0.069-0.139z"></path>
</symbol>
<symbol id="icon-client5" viewBox="0 0 32 32">
<path fill="#afb1b8" style="fill: var(--color3, #afb1b8)" d="M2.434 24.557c0.125 0.155 0.191 0.349 0.188 0.548 0.006 0.13-0.016 0.26-0.067 0.379s-0.127 0.227-0.224 0.313c-0.242 0.184-0.542 0.273-0.845 0.253h-1.486v-3.474h1.455c0.287-0.019 0.572 0.062 0.806 0.231 0.094 0.079 0.168 0.179 0.217 0.292s0.071 0.235 0.065 0.358c0.009 0.192-0.051 0.38-0.169 0.531-0.113 0.138-0.269 0.234-0.443 0.271 0.197 0.036 0.375 0.141 0.502 0.297zM0.691 24.033h0.622c0.141 0.011 0.282-0.030 0.396-0.115 0.047-0.043 0.083-0.095 0.106-0.154s0.032-0.122 0.027-0.185c0.004-0.063-0.005-0.126-0.028-0.185s-0.058-0.112-0.104-0.155c-0.117-0.087-0.262-0.129-0.407-0.117h-0.612v0.911zM1.77 25.365c0.050-0.044 0.089-0.098 0.115-0.159s0.037-0.128 0.032-0.194c0.004-0.067-0.008-0.134-0.034-0.196s-0.066-0.117-0.117-0.161c-0.122-0.091-0.271-0.135-0.423-0.126h-0.652v0.955h0.661c0.149 0.009 0.296-0.034 0.417-0.12z"></path>
<path fill="#afb1b8" style="fill: var(--color3, #afb1b8)" d="M5.409 26.051l-0.81-1.358h-0.304v1.358h-0.696v-3.474h1.318c0.332-0.023 0.661 0.082 0.918 0.295 0.184 0.189 0.295 0.437 0.313 0.701s-0.058 0.525-0.215 0.737c-0.163 0.187-0.385 0.312-0.629 0.353l0.862 1.388h-0.757zM4.295 24.22h0.57c0.396 0 0.593-0.175 0.593-0.526 0.004-0.072-0.007-0.143-0.032-0.21s-0.064-0.128-0.114-0.18c-0.125-0.104-0.286-0.155-0.448-0.141h-0.576l0.007 1.057z"></path>
<path fill="#afb1b8" style="fill: var(--color3, #afb1b8)" d="M9.215 25.352h-1.388l-0.245 0.699h-0.73l1.274-3.435h0.789l1.269 3.435h-0.73l-0.24-0.699zM9.029 24.826l-0.507-1.466-0.507 1.466h1.014z"></path>
<path fill="#afb1b8" style="fill: var(--color3, #afb1b8)" d="M13.98 26.051h-0.691l-1.55-2.362v2.362h-0.69v-3.474h0.69l1.55 2.376v-2.376h0.691v3.474z"></path>
<path fill="#afb1b8" style="fill: var(--color3, #afb1b8)" d="M17.925 25.219c-0.143 0.262-0.361 0.476-0.625 0.613-0.301 0.153-0.635 0.228-0.972 0.219h-1.231v-3.474h1.231c0.336-0.009 0.67 0.065 0.972 0.214 0.265 0.134 0.483 0.345 0.625 0.606 0.142 0.283 0.216 0.595 0.216 0.911s-0.074 0.629-0.216 0.911zM17.134 25.136c0.197-0.231 0.306-0.525 0.306-0.829s-0.108-0.598-0.306-0.829c-0.238-0.209-0.549-0.315-0.865-0.295h-0.48v2.249h0.48c0.316 0.020 0.627-0.086 0.865-0.295z"></path>
<path fill="#afb1b8" style="fill: var(--color3, #afb1b8)" d="M9.648 3.254c0 0 8.923 3.382 8.734 8.277v8.278c0 0-8.916-3.384-8.73-8.278l-0.003-8.277z"></path>
<path fill="#afb1b8" style="fill: var(--color3, #afb1b8)" d="M26.331 17.871c1.685-1.164 3.634-1.886 5.669-2.098v-2.591c-2.345 0.907-4.333 2.552-5.669 4.689z"></path>
<path fill="#afb1b8" style="fill: var(--color3, #afb1b8)" d="M25.318 18.652c1.379-2.788 3.77-4.94 6.682-6.013v-7.467c0 0-12.707 4.818-12.439 11.788v11.786c0 0 0.566-0.215 1.457-0.619 0-0.377 0-0.757 0.041-1.139 0.263-3.236 1.795-6.234 4.259-8.336z"></path>
<path fill="#afb1b8" style="fill: var(--color3, #afb1b8)" d="M24.11 23.030c0.067-0.817 0.216-1.626 0.445-2.413-1.534 1.815-2.464 4.067-2.657 6.44-0.019 0.224-0.029 0.448-0.034 0.679 0.722-0.348 1.562-0.782 2.444-1.293-0.225-1.123-0.292-2.271-0.198-3.413z"></path>
<path fill="#afb1b8" style="fill: var(--color3, #afb1b8)" d="M24.615 23.073c-0.085 1.032-0.032 2.072 0.157 3.090 3.472-2.086 7.373-5.308 7.223-9.203v-0.339c-2.48 0.279-4.801 1.367-6.606 3.099-0.422 1.073-0.683 2.203-0.774 3.353z"></path>
</symbol>
<symbol id="icon-client6" viewBox="0 0 32 32">
<path fill="#afb1b8" style="fill: var(--color3, #afb1b8)" d="M16.086 15.349c-0.15-0.213-0.222-0.464-0.205-0.717v-1.039c0-0.319 0.068-0.561 0.204-0.726s0.369-0.248 0.701-0.247c0.311 0 0.532 0.070 0.663 0.211 0.142 0.18 0.212 0.4 0.196 0.622v0.244h-0.557v-0.247c0.002-0.081-0.003-0.162-0.016-0.242-0.008-0.055-0.036-0.105-0.080-0.144-0.057-0.041-0.129-0.061-0.202-0.056-0.076-0.005-0.152 0.016-0.212 0.059-0.048 0.042-0.081 0.098-0.092 0.159-0.016 0.085-0.023 0.171-0.022 0.257v1.261c-0.009 0.122 0.016 0.243 0.071 0.354 0.028 0.037 0.066 0.067 0.111 0.086s0.095 0.026 0.144 0.020c0.071 0.005 0.142-0.015 0.197-0.057 0.045-0.041 0.075-0.095 0.083-0.153 0.013-0.084 0.019-0.168 0.017-0.253v-0.256h0.557v0.234c0.016 0.231-0.052 0.461-0.192 0.653-0.128 0.154-0.346 0.231-0.666 0.231s-0.562-0.082-0.699-0.254z"></path>
<path fill="#afb1b8" style="fill: var(--color3, #afb1b8)" d="M18.404 15.359c-0.141-0.162-0.211-0.397-0.211-0.709v-1.093c0-0.309 0.070-0.542 0.211-0.701s0.376-0.237 0.705-0.237c0.327 0 0.561 0.079 0.702 0.237s0.212 0.392 0.212 0.701v1.093c0 0.309-0.071 0.545-0.214 0.708s-0.376 0.244-0.699 0.244c-0.324 0-0.564-0.082-0.705-0.243zM19.368 15.097c0.050-0.101 0.073-0.212 0.067-0.323v-1.338c0.006-0.109-0.016-0.218-0.066-0.317-0.028-0.038-0.068-0.068-0.114-0.087s-0.097-0.025-0.147-0.019c-0.050-0.006-0.101 0-0.147 0.019s-0.086 0.049-0.114 0.087c-0.051 0.099-0.074 0.208-0.067 0.317v1.344c-0.007 0.111 0.016 0.222 0.067 0.323 0.032 0.034 0.073 0.061 0.117 0.080s0.094 0.028 0.143 0.028c0.049 0 0.098-0.010 0.143-0.028s0.085-0.046 0.117-0.080v-0.006z"></path>
<path fill="#afb1b8" style="fill: var(--color3, #afb1b8)" d="M20.692 12.651h0.599l0.451 2.016 0.461-2.016h0.583l0.059 2.911h-0.431l-0.046-2.023-0.445 2.023h-0.346l-0.461-2.030-0.043 2.030h-0.436l0.054-2.911z"></path>
<path fill="#afb1b8" style="fill: var(--color3, #afb1b8)" d="M23.517 12.651h0.933c0.538 0 0.807 0.275 0.807 0.826 0 0.528-0.283 0.791-0.849 0.791h-0.318v1.294h-0.576l0.003-2.911zM24.314 13.895c0.057 0.007 0.115 0.002 0.169-0.014s0.105-0.042 0.147-0.078c0.066-0.098 0.095-0.214 0.083-0.329 0.003-0.089-0.006-0.178-0.028-0.264-0.008-0.029-0.023-0.056-0.042-0.080s-0.045-0.044-0.073-0.059c-0.080-0.035-0.168-0.051-0.257-0.046h-0.224v0.87h0.224z"></path>
<path fill="#afb1b8" style="fill: var(--color3, #afb1b8)" d="M26.087 12.651h0.619l0.635 2.911h-0.537l-0.126-0.671h-0.552l-0.129 0.671h-0.545l0.635-2.911zM26.616 14.554l-0.215-1.222-0.215 1.222h0.431z"></path>
<path fill="#afb1b8" style="fill: var(--color3, #afb1b8)" d="M27.854 12.651h0.403l0.772 1.66v-1.66h0.478v2.911h-0.384l-0.777-1.733v1.733h-0.494l0.001-2.911z"></path>
<path fill="#afb1b8" style="fill: var(--color3, #afb1b8)" d="M30.628 14.452l-0.642-1.797h0.54l0.392 1.154 0.368-1.154h0.529l-0.634 1.797v1.11h-0.553v-1.11z"></path>
<path fill="#afb1b8" style="fill: var(--color3, #afb1b8)" d="M16.976 16.835v0.152h-0.47v1.183h-0.197v-1.183h-0.472v-0.152h1.14z"></path>
<path fill="#afb1b8" style="fill: var(--color3, #afb1b8)" d="M18.45 18.17h-0.152c-0.015 0.001-0.031-0.004-0.043-0.013-0.012-0.008-0.020-0.018-0.025-0.031l-0.136-0.317h-0.652l-0.136 0.317c-0.004 0.013-0.011 0.026-0.021 0.036-0.012 0.009-0.027 0.013-0.043 0.013h-0.152l0.576-1.335h0.201l0.583 1.33zM17.496 17.674h0.544l-0.23-0.543c-0.017-0.041-0.031-0.083-0.043-0.126-0.008 0.025-0.015 0.050-0.022 0.071l-0.021 0.056-0.228 0.542z"></path>
<path fill="#afb1b8" style="fill: var(--color3, #afb1b8)" d="M19.443 18.038c0.036 0.002 0.072 0.002 0.108 0 0.031-0.003 0.062-0.008 0.092-0.016 0.028-0.006 0.056-0.014 0.083-0.024 0.025-0.009 0.051-0.021 0.077-0.033v-0.3h-0.23c-0.006 0-0.011-0-0.017-0.002s-0.010-0.005-0.014-0.008c-0.004-0.003-0.007-0.007-0.009-0.011s-0.003-0.009-0.003-0.013v-0.103h0.447v0.512c-0.037 0.024-0.075 0.045-0.115 0.063s-0.084 0.034-0.128 0.045c-0.047 0.013-0.095 0.022-0.144 0.027-0.056 0.006-0.112 0.009-0.168 0.008-0.099 0.001-0.198-0.016-0.29-0.050-0.086-0.032-0.165-0.079-0.23-0.14-0.064-0.061-0.115-0.133-0.149-0.211-0.036-0.088-0.054-0.182-0.053-0.277-0.001-0.095 0.016-0.19 0.052-0.279 0.033-0.079 0.084-0.151 0.149-0.211s0.144-0.107 0.23-0.138c0.099-0.034 0.203-0.051 0.309-0.050 0.054-0 0.107 0.004 0.16 0.012 0.047 0.007 0.093 0.018 0.137 0.034 0.040 0.014 0.079 0.032 0.115 0.053 0.035 0.021 0.069 0.044 0.1 0.070l-0.055 0.082c-0.004 0.008-0.011 0.014-0.019 0.018s-0.017 0.007-0.026 0.007c-0.013-0-0.025-0.004-0.036-0.011-0.017-0.008-0.036-0.019-0.056-0.032-0.025-0.014-0.050-0.026-0.077-0.036-0.034-0.013-0.070-0.023-0.106-0.030-0.048-0.008-0.097-0.012-0.146-0.012-0.076-0.001-0.151 0.012-0.222 0.037-0.064 0.024-0.122 0.060-0.169 0.106-0.048 0.048-0.084 0.104-0.107 0.166-0.051 0.145-0.051 0.3 0 0.445 0.025 0.063 0.064 0.12 0.115 0.168 0.047 0.046 0.105 0.082 0.168 0.106 0.073 0.023 0.151 0.032 0.228 0.026z"></path>
<path fill="#afb1b8" style="fill: var(--color3, #afb1b8)" d="M21.28 18.017h0.629v0.152h-0.822v-1.335h0.197l-0.005 1.183z"></path>
<path fill="#afb1b8" style="fill: var(--color3, #afb1b8)" d="M22.564 18.169h-0.197v-1.335h0.197v1.335z"></path>
<path fill="#afb1b8" style="fill: var(--color3, #afb1b8)" d="M23.297 16.841c0.012 0.006 0.022 0.014 0.030 0.024l0.842 1.006c-0.001-0.016-0.001-0.032 0-0.048 0-0.015 0-0.030 0-0.043v-0.951h0.172v1.34h-0.099c-0.015 0.001-0.029-0.001-0.043-0.007-0.012-0.007-0.023-0.015-0.031-0.025l-0.841-1.005c0 0.016 0 0.031 0 0.045s0 0.029 0 0.041v0.951h-0.165v-1.335h0.103c0.011 0 0.022 0.002 0.032 0.006z"></path>
<path fill="#afb1b8" style="fill: var(--color3, #afb1b8)" d="M25.791 16.835v0.147h-0.698v0.441h0.566v0.142h-0.566v0.456h0.698v0.147h-0.901v-1.332h0.901z"></path>
<path fill="#afb1b8" style="fill: var(--color3, #afb1b8)" d="M5.143 8.591l8.75 2.279v7.985l-8.75-2.278v-7.986zM4.582 7.91v9.055l9.871 2.571v-9.054l-9.871-2.573z"></path>
<path fill="#afb1b8" style="fill: var(--color3, #afb1b8)" d="M9.872 23.739l-9.872-2.574v-9.054l9.872 2.572v9.055z"></path>
<path fill="#afb1b8" style="fill: var(--color3, #afb1b8)" d="M4.745 8.488l8.636 2.25-3.672 3.369-8.637-2.251 3.674-3.368zM4.582 7.91l-4.582 4.202 9.872 2.572 4.581-4.202-9.871-2.572z"></path>
<path fill="#afb1b8" style="fill: var(--color3, #afb1b8)" d="M10.428 23.23l4.025-3.693-4.025-1.049v4.742z"></path>
</symbol>
<symbol id="icon-clock" viewBox="0 0 32 32">
<path fill="#212121" style="fill: var(--color1, #212121)" d="M31.296 15.301c-0.001-8.452-6.855-15.303-15.308-15.301s-15.303 6.855-15.301 15.308c0.002 6.788 4.422 12.543 10.541 14.545l0.108 0.031c0.061 0.019 0.123 0.029 0.187 0.029 0.12 0 0.238-0.032 0.342-0.094 0.135-0.080 0.236-0.207 0.283-0.357l3.865-12.25c1.054-0.004 1.906-0.859 1.906-1.913 0-1.056-0.856-1.913-1.913-1.913-0.303 0-0.59 0.071-0.845 0.196l0.011-0.005-5.106-5.107c-0.114-0.11-0.271-0.179-0.443-0.179-0.352 0-0.638 0.286-0.638 0.638 0 0.172 0.068 0.328 0.179 0.443l-0-0 5.103 5.109c-0.121 0.241-0.191 0.525-0.191 0.826 0 0.602 0.283 1.137 0.723 1.48l0.004 0.003-3.682 11.673c-7.278-2.681-11.004-10.754-8.324-18.032s10.754-11.004 18.032-8.323c7.278 2.681 11.004 10.754 8.323 18.032-1.345 3.581-4.003 6.406-7.374 7.938l-0.088 0.036-0.398-1.874c-0.063-0.291-0.318-0.506-0.624-0.506-0.164 0-0.313 0.062-0.426 0.163l0.001-0.001-3.837 3.426c-0.132 0.117-0.214 0.287-0.214 0.477 0 0.283 0.185 0.524 0.441 0.606l0.005 0.001 4.899 1.563c0.058 0.020 0.126 0.031 0.196 0.031 0.352 0 0.637-0.285 0.637-0.637 0-0.047-0.005-0.093-0.015-0.138l0.001 0.004-0.391-1.839c5.528-2.374 9.329-7.772 9.329-14.057 0-0.011 0-0.023-0-0.034v0.002zM15.992 14.664c0.352 0 0.638 0.286 0.638 0.638s-0.285 0.638-0.638 0.638v0c-0.352 0-0.638-0.286-0.638-0.638s0.286-0.638 0.638-0.638v0zM18.092 29.528l2.184-1.948 0.603 2.84-2.787-0.892z"></path>
<path fill="#2196f3" style="fill: var(--color2, #2196f3)" d="M15.354 3.185v1.275c0 0.352 0.286 0.638 0.638 0.638s0.638-0.285 0.638-0.638v0-1.275c0-0.352-0.285-0.638-0.638-0.638s-0.638 0.285-0.638 0.638v0zM3.876 14.664c-0.352 0-0.638 0.286-0.638 0.638s0.285 0.638 0.638 0.638h1.275c0.352 0 0.638-0.286 0.638-0.638s-0.285-0.638-0.638-0.638h-1.275zM28.108 15.939c0.352 0 0.638-0.286 0.638-0.638s-0.285-0.638-0.638-0.638h-1.275c-0.352 0-0.638 0.286-0.638 0.638s0.285 0.638 0.638 0.638h1.275z"></path>
</symbol>
<symbol id="icon-diagram" viewBox="0 0 32 32">
<path fill="#2196f3" style="fill: var(--color2, #2196f3)" d="M14.926 14.965h1.066v4.798h-1.066v-4.798zM19.19 17.097h1.066v2.665h-1.066v-2.665zM10.661 18.696h1.066v1.066h-1.066v-1.066zM7.463 18.163h1.066v1.599h-1.066v-1.599z"></path>
<path fill="#212121" style="fill: var(--color1, #212121)" d="M1.599 28.291h25.586c0 0 0 0 0 0 0.883 0 1.599-0.716 1.599-1.599v0-2.132c0-0.883-0.716-1.599-1.599-1.599v0h-0.533v-13.294l3.028-2.868c0.207 0.104 0.452 0.166 0.711 0.166 0.888 0 1.608-0.72 1.608-1.608s-0.72-1.608-1.608-1.608c-0.888 0-1.608 0.72-1.608 1.608 0 0.247 0.056 0.481 0.155 0.69l-0.004-0.010-2.281 2.162v-1.23c0-0.883-0.716-1.599-1.599-1.599v0h-21.323c-0.883 0-1.599 0.716-1.599 1.599v0 15.992h-0.533c-0.883 0-1.599 0.716-1.599 1.599v0 2.132c0 0.883 0.716 1.599 1.599 1.599v0zM30.384 4.837c0.294 0 0.533 0.239 0.533 0.533s-0.239 0.533-0.533 0.533v0c-0.294 0-0.533-0.239-0.533-0.533s0.239-0.533 0.533-0.533v0zM3.198 6.969c0-0.294 0.239-0.533 0.533-0.533h21.323c0.294 0 0.533 0.239 0.533 0.533v2.239l-1.066 1.013v-2.185c0-0.295-0.239-0.534-0.534-0.534h-19.189c-0.294 0-0.534 0.239-0.534 0.533v13.327c0 0.294 0.239 0.533 0.534 0.533h19.189c0.295 0 0.534-0.239 0.534-0.533v-9.675l1.066-1.010v12.283h-22.389v-15.991zM7.996 13.899c-0.001 0-0.003 0-0.005 0-0.883 0-1.599 0.716-1.599 1.599s0.716 1.599 1.599 1.599c0.432 0 0.824-0.172 1.112-0.45l-0 0 1.853 0.93c0.215 0.107 0.476 0.057 0.636-0.122l3.939-4.432 3.872 2.902c0.208 0.155 0.498 0.139 0.686-0.039l3.365-3.188v8.131h-18.123v-12.261h18.123v2.661l-3.771 3.572-3.904-2.927c-0.088-0.067-0.2-0.107-0.32-0.107-0.158 0-0.3 0.069-0.398 0.178l-0 0.001-3.993 4.493-1.493-0.746c0.011-0.064 0.017-0.128 0.020-0.193 0-0.883-0.716-1.599-1.599-1.599v0zM8.529 15.498c0 0.294-0.239 0.533-0.533 0.533s-0.533-0.239-0.533-0.533v0c0-0.294 0.239-0.533 0.533-0.533s0.533 0.239 0.533 0.533v0zM11.727 24.026h5.33v0.533c0 0.294-0.238 0.533-0.533 0.533h-4.265c-0.294 0-0.533-0.239-0.533-0.533v0-0.533zM1.067 24.56c0-0.294 0.238-0.533 0.533-0.533h9.062v0.533c0 0.883 0.716 1.599 1.599 1.599v0h4.265c0.883 0 1.599-0.716 1.599-1.599v0-0.533h9.062c0.294 0 0.533 0.239 0.533 0.533v2.132c0 0.294-0.239 0.533-0.533 0.533h-25.586c-0 0-0 0-0 0-0.294 0-0.533-0.239-0.533-0.533 0 0 0 0 0 0v0-2.132z"></path>
</symbol>
<symbol id="icon-email" viewBox="0 0 32 32">
<path fill="#757575" style="fill: var(--color4, #757575)" d="M29 4.25h-26c-1.654 0-3 1.256-3 2.8v16.803c0 1.544 1.346 2.801 3 2.801h26c1.654 0 3-1.256 3-2.801v-16.803c0-1.544-1.346-2.8-3-2.8zM29 6.117c0.136 0 0.265 0.026 0.383 0.072l-13.383 10.828-13.383-10.828c0.118-0.046 0.247-0.072 0.383-0.072h26zM29 24.787h-26c-0.552 0-1-0.418-1-0.933v-15.692l13.345 10.796c0.188 0.152 0.422 0.228 0.655 0.228s0.467-0.076 0.655-0.228l13.345-10.796v15.692c0 0.515-0.448 0.933-1 0.933z"></path>
</symbol>
<symbol id="icon-facebook" viewBox="0 0 32 32">
<path fill="#afb1b8" style="fill: var(--color3, #afb1b8)" d="M18.422 11.142h1.331v-2.313c-0.233-0.029-1.018-0.102-1.935-0.102-1.92 0-3.229 1.207-3.229 3.418v2.036h-2.109v2.582h2.109v6.509h2.589v-6.502h2.029l0.32-2.589h-2.349v-1.782c0-0.749 0.204-1.258 1.244-1.258z"></path>
</symbol>
<symbol id="icon-icon_send" viewBox="0 0 32 32">
<path fill="#fff" style="fill: var(--color5, #fff)" d="M32 0l-32 18 10.227 3.788 15.773-14.788-11.998 16.186 0.010 0.004-0.012-0.004v8.814l5.735-6.691 7.265 2.691 5-28z"></path>
</symbol>
<symbol id="icon-instagram" viewBox="0 0 32 32">
<path fill="#afb1b8" style="fill: var(--color3, #afb1b8)" d="M23.258 13.004c-0.011-0.638-0.133-1.243-0.347-1.804l0.012 0.036c-0.194-0.504-0.481-0.934-0.843-1.287l-0.001-0.001c-0.364-0.364-0.8-0.655-1.287-0.836-0.523-0.204-1.129-0.328-1.761-0.342l-0.006-0c-0.663-0.032-1.44-0.050-2.221-0.050-0.273 0-0.545 0.002-0.817 0.007l0.041-0.001c-1.978 0-2.225 0.007-2.996 0.044-0.778 0.036-1.309 0.16-1.767 0.335-0.487 0.189-0.924 0.473-1.287 0.844-0.371 0.364-0.655 0.8-0.844 1.287-0.201 0.524-0.323 1.13-0.334 1.762l-0 0.005c-0.032 0.663-0.050 1.44-0.050 2.221 0 0.273 0.002 0.545 0.007 0.816l-0.001-0.041c0 1.978 0 2.225 0.036 2.996 0.014 0.638 0.138 1.244 0.354 1.804l-0.012-0.036c0.182 0.487 0.473 0.924 0.844 1.287 0.364 0.371 0.8 0.655 1.287 0.844 0.458 0.175 0.989 0.298 1.76 0.335 0.778 0.036 1.018 0.044 2.996 0.044s2.225-0.007 3.004-0.044c0.635-0.012 1.238-0.134 1.796-0.347l-0.036 0.012c0.982-0.387 1.744-1.149 2.122-2.106l0.009-0.025c0.175-0.465 0.305-0.989 0.335-1.767 0.036-0.771 0.044-1.018 0.044-2.996 0-1.971 0-2.218-0.036-2.996zM21.949 18.945c-0.029 0.705-0.145 1.091-0.247 1.345-0.251 0.637-0.745 1.131-1.365 1.376l-0.016 0.006c-0.255 0.102-0.647 0.218-1.353 0.247-0.764 0.036-0.996 0.044-2.938 0.044-0.211 0.003-0.46 0.005-0.71 0.005-0.784 0-1.563-0.018-2.338-0.052l0.11 0.004c-0.713-0.029-1.091-0.145-1.345-0.247-0.328-0.123-0.608-0.309-0.836-0.545l-0.001-0.001c-0.235-0.227-0.421-0.504-0.54-0.814l-0.005-0.015c-0.153-0.402-0.243-0.866-0.247-1.351v-0.002c-0.031-0.665-0.049-1.445-0.049-2.229 0-0.249 0.002-0.498 0.005-0.747l-0 0.038c0-1.942 0.007-2.175 0.044-2.938 0.029-0.713 0.145-1.091 0.247-1.353 0.116-0.313 0.298-0.596 0.545-0.829 0.229-0.236 0.508-0.422 0.821-0.54l0.015-0.005c0.255-0.102 0.64-0.218 1.353-0.247 0.764-0.036 0.996-0.044 2.931-0.044 1.949 0 2.182 0 2.938 0.044 0.713 0.029 1.091 0.145 1.353 0.247 0.313 0.116 0.604 0.298 0.836 0.545 0.24 0.233 0.429 0.516 0.545 0.829 0.095 0.262 0.218 0.647 0.247 1.353 0.036 0.764 0.044 0.996 0.044 2.938s-0.007 2.167-0.044 2.938z"></path>
<path fill="#afb1b8" style="fill: var(--color3, #afb1b8)" d="M16.029 12.262c-2.065 0-3.738 1.674-3.738 3.738s1.674 3.738 3.738 3.738v0c2.065 0 3.738-1.674 3.738-3.738s-1.674-3.738-3.738-3.738v0zM16.029 18.422c-1.338 0-2.422-1.084-2.422-2.422s1.084-2.422 2.422-2.422v0c1.338 0 2.422 1.084 2.422 2.422s-1.084 2.422-2.422 2.422v0zM20.785 12.116c0 0.482-0.391 0.873-0.873 0.873s-0.873-0.391-0.873-0.873v0c0-0.482 0.391-0.873 0.873-0.873s0.873 0.391 0.873 0.873v0z"></path>
</symbol>
<symbol id="icon-linkedin" viewBox="0 0 32 32">
<path fill="#afb1b8" style="fill: var(--color3, #afb1b8)" d="M23.273 23.273v-5.338c0-2.604-0.56-4.618-3.615-4.618-0.035-0.001-0.075-0.002-0.116-0.002-1.161 0-2.176 0.626-2.727 1.558l-0.008 0.015h-0.044v-1.324h-2.895v9.709h3.018v-4.807c0-1.265 0.24-2.495 1.804-2.495 1.549 0 1.571 1.447 1.571 2.575v4.727h3.011zM8.967 13.564h3.018v9.709h-3.018v-9.709zM10.473 8.727c-0.964 0-1.745 0.781-1.745 1.745v0c0 0.002 0 0.005 0 0.007 0 0.967 0.78 1.752 1.745 1.76h0.001c0.967 0 1.745-0.8 1.745-1.767 0-0.964-0.781-1.745-1.745-1.745v0z"></path>
</symbol>
<symbol id="icon-phone" viewBox="0 0 32 32">
<path fill="#757575" style="fill: var(--color4, #757575)" d="M23.467 0h-14.933c-1.765 0-3.2 1.298-3.2 2.894v25.083c0 1.596 1.435 2.894 3.2 2.894h14.933c1.765 0 3.2-1.298 3.2-2.894v-25.083c0-1.596-1.435-2.894-3.2-2.894zM8.533 1.929h14.933c0.589 0 1.067 0.432 1.067 0.965v20.259h-17.067v-20.259c0-0.532 0.478-0.965 1.067-0.965zM23.467 28.941h-14.933c-0.589 0-1.067-0.432-1.067-0.965v-2.894h17.067v2.894c0 0.532-0.478 0.965-1.067 0.965z"></path>
</symbol>
<symbol id="icon-twitter1" viewBox="0 0 32 32">
<path fill="#afb1b8" style="fill: var(--color3, #afb1b8)" d="M23.273 11.491c-0.538 0.233-1.12 0.393-1.716 0.473 0.618-0.371 1.091-0.945 1.309-1.651-0.582 0.342-1.215 0.582-1.891 0.727-0.546-0.59-1.325-0.958-2.19-0.958-1.647 0-2.982 1.335-2.982 2.982 0 0.244 0.029 0.482 0.085 0.709l-0.004-0.020c-2.485-0.126-4.671-1.309-6.133-3.105l-0.012-0.015c-0.252 0.43-0.401 0.948-0.401 1.5 0 1.029 0.518 1.938 1.307 2.479l0.010 0.007c-0.48-0.007-0.945-0.145-1.345-0.364v0.029c0 1.455 1.033 2.655 2.393 2.931-0.235 0.067-0.506 0.106-0.785 0.106-0.201 0-0.397-0.020-0.586-0.058l0.019 0.003c0.399 1.192 1.493 2.042 2.789 2.073l0.004 0c-1.010 0.801-2.303 1.285-3.709 1.285-0.249 0-0.494-0.015-0.735-0.045l0.029 0.003c1.284 0.839 2.857 1.338 4.547 1.338 0.010 0 0.020-0 0.029-0h-0.002c5.491 0 8.487-4.545 8.487-8.487 0-0.131 0-0.262-0.015-0.385 0.596-0.422 1.091-0.945 1.498-1.549z"></path>
</symbol>
</defs>
</svg>
